<?xml version="1.0" encoding="utf-8"?>
<!-- Generator: Adobe Illustrator 23.0.2, SVG Export Plug-In . SVG Version: 6.00 Build 0)  -->
<svg version="1.1" id="Layer_1" xmlns="http://www.w3.org/2000/svg" xmlns:xlink="http://www.w3.org/1999/xlink" x="0px" y="0px"
	 viewBox="0 0 595.28 841.89" style="enable-background:new 0 0 595.28 841.89;" xml:space="preserve">
<path d="M337.75,317.87c0-12.53-10.16-22.69-22.69-22.69h-7.4v-40.51c0-6.82-5.53-12.34-12.34-12.34h-9.59v-29.34
	c0-4.34-2.24-8.14-5.62-10.34c-2.25-1.78-5.2-3.48-8.55-4.97v-13.66c1.46-0.7,2.9-2.28,3.38-4.24l-1.4-5.67
	c-4.03,1.74-6.7,4.26-6.79,6.56c-0.04,1.09,0.49,2.3,1.38,3.05v12.57c-4.7-1.75-9.92-3.03-14.97-3.5c-0.46-0.04-0.92-0.07-1.38-0.1
	v-16.86c0-0.04-0.01-0.08-0.01-0.11c1.5-0.68,3-2.27,3.49-4.29l-1.4-5.67c-4.03,1.74-6.7,4.26-6.79,6.56
	c-0.04,1.08,0.48,2.28,1.36,3.03c-0.05,0.16-0.08,0.32-0.08,0.49v16.75c-4.34,0-8.67,0.52-12.74,1.41v-11.17
	c1.07-0.83,2.01-2.1,2.38-3.61l-1.4-5.67c-4.03,1.74-6.7,4.26-6.79,6.56c-0.06,1.44,0.9,3.11,2.38,3.6v11.14
	c-11.42,3.17-20.08,9.09-20.1,13.92c-0.48,1.32-0.76,2.75-0.76,4.24v29.34h-8.58c-6.82,0-12.34,5.53-12.34,12.34v40.51h-7.4
	c-12.53,0-22.69,10.16-22.69,22.69v51.89c0,7.08,3.24,13.4,8.32,17.56c10.37,14.8,56.66,24.65,93.75,22.54
	c26.55-1.51,70.27-10.38,71.22-26.57c0.01-0.16,0.01-0.32,0.01-0.49c2.6-3.69,4.13-8.19,4.13-13.04V317.87z"/>
<g>
</g>
<g>
</g>
<g>
</g>
<g>
</g>
<g>
</g>
<g>
</g>
</svg>
