<?xml version="1.0" encoding="utf-8"?>
<!-- Generator: Adobe Illustrator 23.0.2, SVG Export Plug-In . SVG Version: 6.00 Build 0)  -->
<svg version="1.1" id="Layer_1" xmlns="http://www.w3.org/2000/svg" xmlns:xlink="http://www.w3.org/1999/xlink" x="0px" y="0px"
	 viewBox="0 0 595.28 841.89" style="enable-background:new 0 0 595.28 841.89;" xml:space="preserve">
<path d="M435.73,274.75l-57.89-23.12c-8.13-3.25-17.36,0.71-20.61,8.85c-2.99,7.48,0.13,15.88,6.98,19.71
	c-7.6-1.94-15.65,1.99-18.64,9.47l0,0c-3.25,8.13,0.71,17.36,8.85,20.61c-8.13-3.25-17.36,0.71-20.61,8.85v0
	c-3.25,8.13,0.71,17.36,8.85,20.61c-8.13-3.25-17.36,0.71-20.61,8.85l0,0c-3.25,8.13,0.71,17.36,8.85,20.61l23.48,9.38
	c-0.09,0.22-0.19,0.43-0.28,0.66l-18.86,47.22c-7.75-2.16-16.1-3.35-24.81-3.35c-15.08,0-29.09,3.54-40.74,9.6l-24.77-39.26
	c22.07-19.57,29.5-51.04,18.66-78.36l1.9-1.2c6.08-3.84,7.9-11.87,4.06-17.95c-3.84-6.08-11.87-7.9-17.95-4.06l-1.9,1.2
	c-22.55-24.31-59.89-29.92-88.96-11.58c-29.06,18.34-40.07,54.45-27.85,85.28l-1.9,1.2c-6.08,3.84-7.9,11.87-4.06,17.95
	s11.87,7.9,17.95,4.06l1.9-1.2c22.48,24.23,59.64,29.87,88.66,11.76l24.24,38.42c-8.66,6.45-15.29,14.54-19.04,23.62l-36.5-21.07
	l0,76.21l36.26-20.94c7.45,18.67,26.97,33.23,51.49,38.18l-16.95,42.43c0.84-2.12,2.36,1.21,5.39,2.42
	c3.03,1.21,6.42-0.16,7.57-3.05l16.05-40.18c2.13,0.14,4.29,0.22,6.47,0.22c3.6,0,7.14-0.21,10.61-0.6l24.84,39.37
	c-1.22-1.93,2.37-1.2,5.12-2.94c2.76-1.74,3.64-5.28,1.98-7.92l-19.43-30.8c23.06-5.94,41.02-20.53,47.52-38.81l41.01,21.84
	l-2.6-76.16l-38.42,23.97c-5.25-14.7-17.92-27-34.67-34.33l18.96-47.47l23.46,9.37c8.13,3.25,17.36-0.71,20.61-8.85l0,0
	c3.25-8.13-0.71-17.36-8.85-20.61c8.13,3.25,17.36-0.71,20.61-8.85v0c3.25-8.13-0.71-17.36-8.85-20.61
	c8.13,3.25,17.36-0.71,20.61-8.85l0,0c2.99-7.48-0.13-15.88-6.98-19.71c7.6,1.94,15.65-1.99,18.64-9.47
	C447.82,287.23,443.86,278,435.73,274.75z"/>
<g>
</g>
<g>
</g>
<g>
</g>
<g>
</g>
<g>
</g>
<g>
</g>
</svg>
