<?xml version="1.0" encoding="utf-8"?>
<!-- Generator: Adobe Illustrator 23.0.2, SVG Export Plug-In . SVG Version: 6.00 Build 0)  -->
<svg version="1.1" id="Layer_1" xmlns="http://www.w3.org/2000/svg" xmlns:xlink="http://www.w3.org/1999/xlink" x="0px" y="0px"
	 viewBox="0 0 595.28 841.89" style="enable-background:new 0 0 595.28 841.89;" xml:space="preserve">
<path d="M405.22,340.95c0-18.94-14.7-35.23-35.77-42.47c4.87-6.57,7.68-14.3,7.68-22.58c0-18.8-14.49-34.78-34.68-40.67
	c0.05-0.8,0.09-1.61,0.09-2.43c0-23.8-23.21-43.09-51.84-43.09c-28.63,0-51.84,19.29-51.84,43.09c0,1.39,0.09,2.75,0.24,4.11
	c-18.69,7.71-31.23,23.68-32.3,40.54c-21.85,2.99-38.51,18.64-38.51,37.5c0,8.03,3.03,15.48,8.19,21.62
	c-5.63,9.25-7.73,19.9-5.05,30.27c3.09,11.93,11.92,21.12,23.55,26.22c1.18,10.5,8.78,20.12,20.81,27.83c0,0.02,0,0.04,0,0.06
	c0,22.41,20.58,40.82,46.88,42.89l19.09,130.67c1.51,10.31,16.38,10.31,17.89,0l19.11-130.82c2.14,0.22,4.32,0.35,6.54,0.35
	c28.63,0,51.84-19.29,51.84-43.09c0-2.88-0.35-5.69-0.99-8.41c6.68-6.71,10.45-14.31,10.45-22.37c0-4.58-1.22-9.02-3.51-13.22
	C396.59,368.42,405.22,355.46,405.22,340.95z"/>
<g>
</g>
<g>
</g>
<g>
</g>
<g>
</g>
<g>
</g>
<g>
</g>
</svg>
