<?xml version="1.0" encoding="utf-8"?>
<!-- Generator: Adobe Illustrator 23.0.2, SVG Export Plug-In . SVG Version: 6.00 Build 0)  -->
<svg version="1.1" id="Layer_1" xmlns="http://www.w3.org/2000/svg" xmlns:xlink="http://www.w3.org/1999/xlink" x="0px" y="0px"
	 viewBox="0 0 595.28 841.89" style="enable-background:new 0 0 595.28 841.89;" xml:space="preserve">
<path d="M377.68,349.64l-65.82,143.99c-5.57,12.17-22.87,12.17-28.44,0L217.6,349.64c-4.73-10.36,2.83-22.13,14.22-22.13h4.82
	c-2.09-6.25-3.21-12.94-3.21-19.89c0-18.82,8.25-35.71,21.33-47.25c-1.85-4.9-2.87-10.22-2.87-15.77c0-21.26,14.88-39.04,34.8-43.48
	c-1.49-2.01-2.37-4.49-2.37-7.16c0-6.65,5.48-12.12,12.13-12.12c0.43,0,0.85,0.02,1.27,0.07c0.58-4.14,4.12-7.87,8.34-8.25
	l-6.66,8.55c5.25,1.33,9.17,6.12,9.17,11.75c0,2.66-0.88,5.14-2.37,7.15c19.91,4.45,34.8,22.23,34.8,43.49
	c0,5.55-1.01,10.86-2.87,15.76c13.08,11.54,21.33,28.44,21.33,47.26c0,6.95-1.12,13.64-3.21,19.89h7.22
	C374.85,327.51,382.42,339.28,377.68,349.64z"/>
<g>
</g>
<g>
</g>
<g>
</g>
<g>
</g>
<g>
</g>
<g>
</g>
</svg>
