<?xml version="1.0" encoding="utf-8"?>
<!-- Generator: Adobe Illustrator 23.0.2, SVG Export Plug-In . SVG Version: 6.00 Build 0)  -->
<svg version="1.1" id="Layer_1" xmlns="http://www.w3.org/2000/svg" xmlns:xlink="http://www.w3.org/1999/xlink" x="0px" y="0px"
	 viewBox="0 0 595.28 841.89" style="enable-background:new 0 0 595.28 841.89;" xml:space="preserve">
<path d="M426.76,475.32l-13.74,0.16c15.38-7.47,25.71-21.34,25.71-37.22c0-20.7-17.56-37.99-40.98-42.14
	c3.13-5.54,4.88-11.74,4.88-18.27c0-22.14-20.09-40.38-45.94-42.81c-4.57-19.91-25.63-34.96-50.91-34.96
	c-28.63,0-51.84,19.3-51.84,43.1v0.03c-0.6-0.02-1.2-0.03-1.81-0.03c-25.86,0-46.82,17.41-46.82,38.88c0,6.48,1.91,12.59,5.28,17.96
	c-23.7,3.97-41.54,21.37-41.54,42.24c0,14.87,9.06,27.98,22.85,35.73l-17.89,0.2c-3.47,0.03-6.27,2.65-6.23,5.84l88.19,108.9
	c0.04,3.19,17.11,1.53,20.59,1.49l58.27-1.11c3.48-0.04,25.25,0.42,25.21-2.77l78.22-109.57
	C438.23,477.78,430.24,475.28,426.76,475.32z"/>
<g>
</g>
<g>
</g>
<g>
</g>
<g>
</g>
<g>
</g>
<g>
</g>
</svg>
